<?xml version="1.0" encoding="utf-8"?>
<!-- Generator: Adobe Illustrator 27.3.1, SVG Export Plug-In . SVG Version: 6.00 Build 0)  -->
<svg version="1.1" xmlns="http://www.w3.org/2000/svg" xmlns:xlink="http://www.w3.org/1999/xlink" x="0px" y="0px"
	 viewBox="0 0 494.4 496" style="enable-background:new 0 0 494.4 496;" xml:space="preserve">
<style type="text/css">
	.st0{fill:#89C9A1;}
	.st1{fill:#73BB8D;}
	.st2{fill:#69B68E;}
	.st3{fill:#A7D4A3;}
</style>
<g id="Layer_3">
	<rect x="0" y="-0.6" class="st0" width="497.5" height="499.1"/>
</g>
<g id="Layer_2">
	<polygon class="st1" points="64.2,24.5 74.8,9.2 56.3,7.7 	"/>
	<polygon class="st1" points="26.4,15.9 37.6,19.7 35.3,8.1 	"/>
	<polygon class="st1" points="6.7,30.5 18.1,27.4 9.7,19.1 	"/>
	<polygon class="st2" points="45.6,37.4 49.6,46.3 55.4,38.4 	"/>
	<polygon class="st1" points="11,64.8 4.1,57.5 1.2,66.8 	"/>
	<polygon class="st3" points="82,31.5 72.5,44.9 88.5,46.5 	"/>
	<polygon class="st3" points="110.6,17.2 96.6,20.6 105.6,30.8 	"/>
	<polygon class="st2" points="79,91 67.1,90.4 72.4,100.8 	"/>
	<polygon class="st3" points="54.1,118.4 48,129.3 60.2,129.3 	"/>
	<polygon class="st1" points="106.5,91 96.7,101.7 110.6,105 	"/>
	<polygon class="st3" points="91.4,186.7 94.6,177.1 84.9,179 	"/>
	<polygon class="st1" points="54.8,175 59.3,158.3 42.9,162.4 	"/>
	<polygon class="st1" points="82.8,137.3 89.6,131.3 81.2,128.4 	"/>
	<polygon class="st2" points="120,128.7 127.9,133.1 127.9,124.2 	"/>
	<polygon class="st1" points="118.2,178 124.4,171.3 115.7,169.2 	"/>
	<polygon class="st1" points="187,168.8 197.7,171.6 194.9,161.1 	"/>
	<polygon class="st3" points="205.7,23.4 210,33.6 216.6,25 	"/>
	<polygon class="st2" points="256.7,6.5 265,14.7 268,3.7 	"/>
	<polygon class="st1" points="267.9,54.4 265.5,67.8 278.1,63.4 	"/>
	<polygon class="st2" points="254,128.6 257.2,137 262.9,130.3 	"/>
	<polygon class="st3" points="306,88.1 309.7,101.2 319.1,91.8 	"/>
	<polygon class="st1" points="301.1,122.9 293.6,128.7 302.2,132.3 	"/>
	<polygon class="st3" points="325.8,118.1 322.3,130.2 334.4,127.4 	"/>
	<polygon class="st1" points="348.9,88.9 334.9,97.2 348.7,105.1 	"/>
	<polygon class="st1" points="350.3,57.5 348.8,68.2 358.6,64.4 	"/>
	<polygon class="st1" points="377.9,101.8 381.7,115.3 391.4,105.6 	"/>
	<polygon class="st2" points="356.3,132.9 357.5,143.7 366.1,137.5 	"/>
	<polygon class="st1" points="367.6,4.9 360.9,12.3 370.4,14.5 	"/>
	<polygon class="st1" points="399,31 408.7,16 391.2,15 	"/>
	<polygon class="st1" points="446.2,20.1 451,12.6 442.3,12.1 	"/>
	<polygon class="st3" points="481,20.6 491,9.3 476.6,6.2 	"/>
	<polygon class="st1" points="458.2,66.5 466.8,62 458.8,56.9 	"/>
	<polygon class="st3" points="482.7,101.8 491.6,91.7 478.7,88.9 	"/>
	<polygon class="st1" points="475,123.6 468.4,129.4 476.5,132.3 	"/>
	<polygon class="st2" points="329.4,187.3 341.7,186.4 335.1,176.3 	"/>
	<polygon class="st2" points="402.9,202.9 420.7,206.2 414.5,189 	"/>
	<polygon class="st2" points="482.4,176.8 479,189.1 491.5,185.7 	"/>
	<polygon class="st2" points="475.3,123.5 468.5,129.1 476.9,132.1 	"/>
	<polygon class="st2" points="450.1,266.2 442.3,276.9 455.7,278.1 	"/>
	<polygon class="st2" points="391.7,277.4 377.2,274.7 382.3,288.8 	"/>
	<polygon class="st2" points="479.5,292.3 475.9,302.6 486.8,300.5 	"/>
	<polygon class="st2" points="430,310 436.3,304.6 428.3,301.9 	"/>
	<polygon class="st3" points="402.9,292.4 395.2,302.7 408.1,304.2 	"/>
	<polygon class="st3" points="454.2,312.2 447.7,323.2 460.7,323.2 	"/>
	<polygon class="st2" points="408.7,333.7 391.5,334.4 401,349.1 	"/>
	<polygon class="st2" points="365.4,311.5 356,305.9 356,317 	"/>
	<polygon class="st3" points="438,362.8 443.2,351.3 430.4,352.7 	"/>
	<polygon class="st2" points="465,352.2 471.2,343.7 460.6,342.6 	"/>
	<polygon class="st2" points="468.3,412.7 464.4,397.6 453.2,408.8 	"/>
	<polygon class="st2" points="491.3,410.3 483.3,404 482,414.3 	"/>
	<polygon class="st3" points="476.8,439.8 463.7,434.6 465.9,448.7 	"/>
	<polygon class="st2" points="475.5,470 467.3,475.9 476.7,480.1 	"/>
	<polygon class="st2" points="382.2,461.3 391.7,450.9 377.7,447.9 	"/>
	<polygon class="st3" points="402.4,464.7 393.7,475.8 407.9,477.7 	"/>
	<polygon class="st2" points="367.5,485.7 355.4,478.5 355.4,492.8 	"/>
	<polygon class="st2" points="325.1,413.4 322.1,397.1 309.4,408.1 	"/>
	<polygon class="st2" points="302.3,478.8 300.9,471.1 294.9,476.3 	"/>
	<polygon class="st2" points="241.4,412.9 232.3,404.1 229.4,416.5 	"/>
	<polygon class="st2" points="193.6,483.3 182,478.2 183.5,490.9 	"/>
	<polygon class="st2" points="145.4,440 133.9,434.9 135.4,447.6 	"/>
	<polygon class="st3" points="54.6,464.5 45.9,475.7 60.2,477.6 	"/>
	<polygon class="st2" points="21.3,485.2 9.1,478 9.1,492.4 	"/>
	<polygon class="st2" points="71.6,379.5 66.6,365 56.5,376.9 	"/>
	<polygon class="st2" points="21.5,346.1 22.3,334.6 11.9,339.8 	"/>
	<polygon class="st2" points="81.8,311.4 92.2,306.5 82.5,299.9 	"/>
	<polygon class="st2" points="22.5,243.8 35.6,245.6 30.5,233.2 	"/>
	<polygon class="st3" points="141.6,326.6 147.9,340.6 156.9,327.8 	"/>
	<polygon class="st2" points="128.5,296 120.5,301.9 129.7,305.8 	"/>
	<polygon class="st2" points="136.2,274.3 145.5,264.5 132.1,261.4 	"/>
	<polygon class="st2" points="162.4,272.2 176.1,276.8 173,262.4 	"/>
	<polygon class="st2" points="174.8,231.7 174.7,242 183.8,236.8 	"/>
	<polygon class="st2" points="234.1,229.9 228.7,241.4 241.5,240.2 	"/>
	<polygon class="st2" points="219,278.5 203.5,274.2 207.8,290 	"/>
	<polygon class="st2" points="192.7,310.1 182.1,306 184,317.3 	"/>
	<polygon class="st2" points="168.4,359.8 162.3,350.1 157,360.4 	"/>
	<polygon class="st2" points="198.2,345.4 195.5,333.4 186.3,341.9 	"/>
	<polygon class="st3" points="234.8,304 227.7,291.4 220.4,304.1 	"/>
	<polygon class="st2" points="226.7,351.1 236.6,334.2 216.7,334.2 	"/>
	<polygon class="st2" points="255,299.6 254.9,309.7 263.8,304.6 	"/>
	<polygon class="st3" points="281.2,311.4 274.3,323.1 288.1,323.1 	"/>
	<polygon class="st2" points="318.5,264 305.1,261.5 309.8,274.4 	"/>
</g>
</svg>
